<?xml version="1.0" standalone="no"?>
<!DOCTYPE svg PUBLIC "-//W3C//DTD SVG 20010904//EN"
 "http://www.w3.org/TR/2001/REC-SVG-20010904/DTD/svg10.dtd">
<svg version="1.0" xmlns="http://www.w3.org/2000/svg"
 width="1024.000000pt" height="1024.000000pt" viewBox="0 0 1024.000000 1024.000000"
 preserveAspectRatio="xMidYMid meet">
<metadata>
Created by potrace 1.16, written by Peter Selinger 2001-2019
</metadata>
<g transform="translate(0.000000,1024.000000) scale(0.100000,-0.100000)"
fill="#000000" stroke="none">
<path d="M7506 9965 c-58 -21 -86 -44 -131 -111 -60 -87 -80 -159 -80 -279 0
-114 20 -187 61 -226 23 -21 25 -29 19 -69 -12 -82 -82 -273 -153 -422 -83
-172 -110 -255 -116 -356 -3 -59 -8 -79 -27 -100 -13 -15 -27 -31 -31 -36 -4
-5 -26 10 -50 34 -48 48 -124 99 -184 125 -48 20 -285 54 -454 65 -132 8 -210
1 -257 -24 -53 -28 -178 -128 -312 -251 -37 -33 -98 -88 -136 -121 -39 -34
-99 -87 -135 -119 -80 -71 -203 -165 -217 -165 -21 0 -51 47 -58 90 -11 69
-63 111 -255 209 -91 46 -205 107 -255 134 -220 122 -405 223 -466 253 -98 48
-178 101 -231 152 l-47 45 6 77 c6 84 -9 135 -62 205 -41 52 -135 95 -227 102
-173 13 -263 -66 -345 -304 -22 -66 -26 -96 -27 -193 -1 -100 2 -122 22 -165
65 -140 220 -213 327 -152 22 13 61 52 88 87 26 36 56 69 65 73 20 9 221 -52
372 -113 130 -52 342 -154 476 -228 61 -33 170 -91 243 -127 72 -36 140 -74
150 -84 18 -18 18 -20 -16 -87 -28 -57 -34 -76 -29 -110 l5 -41 -100 -42 c-55
-24 -116 -47 -137 -53 -39 -11 -92 -53 -92 -75 0 -7 -10 -15 -22 -18 -156 -34
-351 -68 -437 -75 -58 -6 -139 -15 -180 -21 -57 -8 -79 -8 -97 1 -12 7 -29 10
-38 7 -17 -7 -36 -67 -36 -114 0 -18 -2 -33 -4 -33 -3 0 -26 14 -53 30 -136
85 -647 276 -922 345 -237 59 -329 68 -636 62 -288 -6 -349 -14 -504 -64 -79
-26 -92 -34 -169 -108 -49 -46 -85 -90 -88 -105 -5 -21 -15 -28 -62 -42 -71
-21 -157 -80 -195 -134 -64 -91 -44 -183 69 -322 42 -52 74 -95 72 -96 -27
-21 -163 -72 -232 -87 -49 -10 -108 -30 -131 -43 -125 -74 -196 -234 -174
-394 8 -60 26 -82 66 -82 13 0 23 -4 23 -8 0 -4 -29 -37 -66 -72 -81 -80 -99
-110 -120 -189 -10 -42 -31 -84 -60 -123 -52 -71 -64 -109 -64 -208 0 -102 21
-193 64 -277 l35 -70 -35 -94 c-43 -114 -67 -216 -89 -369 l-17 -114 22 -18
c34 -27 65 -22 105 18 58 57 114 77 238 82 117 5 119 4 91 -50 -9 -18 -27 -64
-41 -102 -87 -253 -94 -552 -19 -772 23 -68 23 -75 10 -135 -18 -84 -18 -158
0 -178 8 -9 19 -42 25 -73 22 -122 86 -199 239 -291 43 -25 119 -86 172 -137
52 -50 125 -111 162 -136 153 -103 392 -184 541 -184 73 0 190 31 231 62 l30
21 134 -31 c75 -18 137 -33 139 -35 1 -2 -13 -35 -32 -73 -20 -38 -39 -89 -43
-114 -7 -43 -9 -45 -47 -52 -22 -4 -66 -7 -97 -7 -91 -1 -88 4 -88 -136 0
-108 -2 -124 -17 -130 -10 -4 -62 -10 -115 -12 -117 -7 -227 16 -413 83 -278
100 -474 151 -547 141 -47 -6 -85 -39 -97 -81 -21 -82 56 -142 129 -101 53 30
146 8 370 -90 155 -68 292 -109 415 -125 87 -11 250 4 355 33 41 11 93 21 114
21 37 1 40 -1 53 -39 22 -63 33 -70 90 -56 75 19 213 82 223 102 6 10 10 31
10 47 0 24 -9 35 -55 66 -31 20 -60 49 -66 64 -6 15 -9 66 -7 114 4 75 9 96
41 160 61 122 67 127 174 138 51 6 112 14 135 20 74 17 81 14 116 -43 43 -71
70 -154 87 -267 8 -52 15 -98 15 -102 0 -4 7 -14 16 -22 19 -20 76 -21 112 -2
16 8 57 20 92 26 36 6 82 23 103 36 33 22 38 30 35 57 -2 26 -16 42 -83 92
-64 49 -83 70 -95 103 -14 40 -13 44 13 95 15 30 27 66 27 80 0 33 7 34 32 2
11 -14 28 -25 39 -25 10 0 63 19 116 41 76 33 100 39 112 30 78 -55 154 -69
259 -46 105 22 125 20 216 -24 44 -21 146 -65 226 -96 80 -32 166 -68 192 -81
84 -42 150 -63 298 -93 80 -16 162 -37 183 -46 99 -41 394 -60 563 -35 131 19
290 65 464 135 270 109 359 164 527 328 l61 60 60 -39 c32 -22 68 -44 78 -50
17 -10 17 -14 -9 -100 -44 -147 -51 -193 -51 -339 1 -144 34 -474 60 -599 47
-226 147 -503 217 -604 23 -33 71 -90 106 -127 35 -36 76 -81 90 -99 80 -100
311 -270 433 -319 164 -66 413 -81 628 -39 166 33 240 72 364 192 240 231 345
422 395 719 28 165 29 381 2 518 -22 113 -101 391 -135 475 -38 94 -107 205
-173 282 -34 39 -63 74 -63 77 0 4 19 11 43 17 99 25 177 111 164 179 -6 30
-91 242 -124 308 -117 235 -198 359 -327 500 -127 139 -379 335 -529 411 l-48
25 25 30 c32 37 32 56 4 121 -21 48 -21 51 -4 64 105 77 167 185 168 294 0 75
-39 294 -77 425 -31 105 -119 293 -245 520 -111 200 -139 262 -180 395 -53
170 -127 337 -296 667 -97 187 -133 249 -162 273 -73 60 -276 104 -428 93
l-71 -5 -11 31 c-17 47 -51 56 -147 37 -43 -8 -81 -14 -83 -12 -4 5 111 95
163 129 22 14 72 35 110 46 101 29 179 80 270 175 72 75 87 86 145 104 36 11
92 25 125 31 33 7 70 14 83 17 30 6 62 60 62 106 0 35 3 38 78 81 114 66 223
118 353 170 105 43 122 47 190 44 62 -1 80 2 110 20 39 25 59 59 59 103 0 66
-138 94 -246 51 -28 -10 -138 -65 -246 -120 -108 -56 -200 -101 -205 -101 -5
0 -14 20 -21 44 -32 123 -156 165 -247 84 l-35 -30 0 33 c0 53 -18 104 -46
134 -26 28 -26 30 -14 84 6 31 28 92 47 136 19 44 68 159 107 255 40 96 90
201 111 234 22 32 49 73 60 91 14 25 28 35 56 39 54 9 129 64 171 126 75 110
114 340 72 423 -47 94 -105 135 -230 167 -93 23 -97 23 -148 5z m180 -41 c54
-18 63 -24 119 -81 64 -65 80 -147 51 -278 -26 -124 -85 -215 -165 -258 -29
-16 -55 -27 -57 -24 -7 7 66 150 83 162 18 13 14 60 -5 60 -7 0 -32 -39 -56
-88 -23 -48 -46 -84 -51 -80 -4 5 -5 3 -2 -3 9 -15 -49 -143 -68 -150 -25 -10
-132 -214 -195 -372 -24 -61 -35 -80 -42 -70 -7 9 -8 8 -4 -5 3 -11 -9 -52
-29 -98 -19 -44 -38 -97 -41 -118 -8 -51 -13 -57 -53 -66 l-34 -7 7 72 c7 76
25 128 144 415 70 170 157 461 141 471 -13 8 -29 -5 -29 -22 0 -11 -4 -12 -19
-2 -50 31 -63 231 -23 353 28 85 79 158 129 184 47 25 134 27 199 5z m-3864
-811 c32 -15 58 -37 80 -68 18 -26 33 -50 34 -53 0 -4 6 -20 12 -35 16 -37 13
-107 -4 -100 -25 9 -25 -19 0 -57 62 -94 133 -144 426 -300 96 -51 225 -121
285 -155 61 -35 175 -95 254 -135 185 -92 265 -143 291 -184 31 -51 27 -61
-27 -63 -39 -1 -52 3 -74 25 -67 65 -639 363 -888 462 -205 81 -401 135 -401
111 0 -21 -121 -159 -151 -171 -68 -29 -154 -4 -215 62 -51 53 -67 95 -72 183
-11 195 82 423 197 485 49 28 184 23 253 -7z m2555 -583 c-3 -13 0 -20 9 -20
8 0 14 -4 14 -9 0 -14 -40 -61 -52 -61 -6 0 -35 -23 -65 -51 -30 -28 -57 -48
-60 -45 -3 3 2 15 12 26 25 28 10 25 -29 -5 -43 -33 -50 -32 -31 8 16 31 15
31 -2 12 -10 -11 -32 -30 -50 -43 l-31 -22 6 22 c4 19 -5 14 -47 -24 -52 -47
-89 -66 -59 -30 33 39 29 44 -10 12 -23 -18 -45 -30 -48 -27 -21 20 157 203
240 246 50 27 69 31 133 31 70 0 75 -1 70 -20z m449 -54 c93 -44 197 -143 237
-226 63 -130 101 -351 77 -449 -58 -243 -295 -367 -544 -286 -105 34 -150 59
-208 113 -89 83 -129 197 -143 407 -10 160 20 252 115 345 141 139 305 173
466 96z m1439 -138 c31 -14 34 -59 5 -88 -17 -17 -33 -20 -118 -20 -95 0 -101
-1 -212 -49 -167 -71 -330 -149 -347 -166 -13 -14 -21 -17 -39 -14 -4 0 -11
-5 -16 -13 -7 -10 -13 -8 -28 11 -11 13 -20 26 -19 30 1 9 579 294 625 308 51
15 117 16 149 1z m-3007 -441 c40 -41 54 -109 50 -239 l-3 -93 -73 -9 c-40 -4
-88 -5 -106 -2 l-34 6 -12 128 -12 128 26 51 c26 53 36 59 102 62 22 1 39 -8
62 -32z m487 -47 c10 -16 -14 -49 -38 -54 -12 -2 -71 -9 -132 -16 -60 -6 -130
-14 -153 -17 -41 -5 -44 -4 -40 18 5 34 39 46 173 62 155 18 183 19 190 7z
m270 -106 c22 -14 26 -23 21 -46 -7 -38 -45 -88 -76 -100 -14 -6 -63 -14 -110
-18 -101 -9 -304 -54 -365 -80 -70 -30 -66 8 5 45 64 33 284 85 422 100 32 4
60 10 63 15 3 5 -14 19 -37 32 -49 27 -55 39 -32 63 21 20 69 16 109 -11z
m-3220 -58 c142 -30 323 -82 455 -131 52 -19 158 -58 235 -86 153 -56 293
-122 367 -172 37 -25 49 -40 57 -72 10 -42 45 -95 61 -95 5 0 26 11 46 25 52
35 88 33 104 -6 16 -39 51 -61 87 -57 31 3 362 -158 469 -228 129 -84 318
-304 407 -472 123 -233 151 -555 64 -736 -64 -132 -149 -202 -281 -230 -62
-13 -67 -12 -60 3 32 77 60 251 48 303 -10 50 -24 18 -34 -80 -20 -186 -46
-244 -129 -286 -68 -35 -132 -41 -211 -21 -90 23 -302 145 -640 368 -105 69
-229 140 -340 193 -196 95 -430 213 -445 224 -12 9 -160 91 -403 221 -39 22
-130 66 -201 98 -71 33 -150 73 -175 91 -44 29 -46 33 -40 68 4 31 1 43 -23
70 -25 29 -37 34 -100 43 -86 12 -169 39 -321 105 l-112 49 0 42 c0 23 -11 77
-24 120 -14 43 -30 105 -36 137 -7 33 -23 96 -36 140 -36 119 -33 147 19 191
48 42 195 115 277 138 30 9 125 27 210 41 85 14 166 27 180 30 14 2 111 3 215
1 158 -2 210 -7 310 -29z m2250 -53 c12 -121 10 -118 97 -121 45 -2 100 3 133
12 54 14 57 13 81 -7 26 -23 55 -93 47 -114 -6 -15 -65 -33 -110 -33 -29 0
-31 2 -28 34 8 88 -80 98 -345 40 -95 -21 -110 -19 -110 12 0 30 -14 60 -44
92 l-21 23 23 18 c13 9 65 30 115 45 51 15 103 34 117 41 14 8 28 14 32 15 4
0 9 -26 13 -57z m159 -206 c42 -31 -5 -77 -78 -77 -22 0 -134 -13 -250 -29
-116 -16 -296 -39 -400 -51 -104 -12 -194 -24 -201 -26 -7 -3 -16 -22 -20 -42
-14 -79 -70 -98 -98 -34 -32 74 -17 104 56 107 23 1 80 9 127 18 47 10 148 28
225 41 77 14 205 38 285 54 260 53 325 60 354 39z m260 -72 c3 -9 0 -18 -7
-20 -24 -9 -164 -46 -262 -70 -55 -14 -142 -37 -193 -50 l-94 -26 -46 29 c-26
16 -56 32 -67 37 -15 6 5 11 70 20 50 7 124 18 165 25 41 6 113 15 160 20 47
4 114 17 150 28 81 25 116 27 124 7z m396 -12 c0 -5 -7 -17 -15 -27 -31 -42
-13 -100 67 -219 23 -34 53 -65 73 -74 30 -14 32 -19 24 -40 -12 -33 -11 -100
2 -126 6 -12 21 -32 33 -45 l21 -23 -60 -57 c-33 -31 -95 -85 -138 -120 -127
-103 -197 -233 -181 -339 7 -53 31 -120 49 -143 16 -19 77 -191 104 -290 12
-41 64 -199 116 -350 61 -175 104 -318 120 -395 86 -432 47 -946 -97 -1264
-15 -36 -30 -66 -32 -68 -5 -6 -166 37 -230 61 -215 81 -576 302 -576 352 0
12 -9 32 -19 46 -23 28 -112 79 -155 88 -35 7 -27 -12 -114 265 -69 216 -82
280 -82 393 0 114 22 319 40 379 13 41 13 42 83 57 89 20 142 51 201 118 104
114 126 187 129 421 2 181 -10 249 -68 388 -84 199 -299 461 -470 571 -39 25
-144 82 -235 127 -91 46 -168 85 -172 89 -11 11 15 82 33 87 8 3 102 16 208
29 l192 24 42 -28 c23 -15 68 -40 99 -56 l57 -28 153 39 c84 21 212 57 285 82
96 31 171 49 270 62 151 20 243 25 243 14z m-4483 -33 c9 -14 10 -27 3 -45
-17 -44 -12 -125 11 -171 11 -24 57 -77 101 -119 66 -62 102 -86 192 -130 198
-95 318 -138 447 -159 42 -7 82 -45 73 -69 -3 -9 -10 -14 -15 -11 -6 3 -17 0
-25 -7 -10 -8 -34 -10 -77 -5 -65 6 -284 63 -303 78 -6 4 -38 22 -70 38 -33
16 -84 49 -115 72 -31 24 -69 52 -83 63 -52 39 -96 86 -90 97 4 7 2 8 -4 4 -7
-4 -12 -3 -12 1 0 5 -17 28 -37 50 -62 67 -85 102 -77 114 4 8 3 9 -4 5 -15
-9 -26 53 -19 112 4 37 12 51 38 74 41 33 50 34 66 8z m197 -102 c14 -51 37
-131 51 -177 14 -46 25 -97 25 -113 l0 -29 -31 18 c-17 10 -68 57 -114 104
-63 65 -87 98 -95 130 -25 91 15 159 93 159 l44 0 27 -92z m5571 -26 c78 -24
135 -54 160 -83 11 -13 13 -18 5 -12 -28 21 -150 36 -263 31 -105 -4 -113 -3
-147 20 -29 20 -43 23 -82 19 -58 -7 -117 -37 -171 -86 -23 -21 -53 -44 -66
-51 -13 -7 -49 -32 -80 -55 -31 -24 -108 -71 -171 -105 -218 -117 -358 -242
-423 -378 -59 -123 -60 -165 -8 -383 85 -353 156 -581 346 -1114 76 -215 110
-321 124 -395 13 -62 12 -142 0 -134 -15 9 -49 96 -42 107 4 6 1 7 -7 2 -10
-6 -12 -4 -7 9 5 11 3 15 -5 10 -8 -5 -9 -2 -5 10 4 10 3 15 -3 11 -6 -3 -11
-3 -11 2 -1 4 -3 20 -5 35 -4 38 -41 118 -53 118 -15 0 -14 -35 3 -75 9 -22
22 -35 33 -35 14 0 15 -2 4 -9 -26 -16 22 -138 98 -251 36 -53 37 -61 12 -160
-95 -382 -220 -718 -365 -980 -35 -63 -66 -126 -69 -140 -18 -77 -208 -280
-347 -371 -111 -73 -152 -94 -263 -131 -79 -26 -108 -30 -207 -32 -103 -1
-123 2 -193 27 -43 16 -113 46 -157 68 -43 22 -103 48 -132 58 -83 29 -465
211 -510 242 -17 13 -99 56 -182 97 -83 40 -161 83 -173 94 -17 16 -32 20 -60
18 -115 -12 -199 -3 -298 30 -125 41 -320 131 -539 249 -187 100 -213 120
-222 166 -3 17 -19 44 -35 59 -25 24 -27 29 -15 42 13 12 13 19 0 50 -10 24
-12 40 -5 52 6 9 11 12 11 6 0 -6 13 -17 29 -24 19 -7 27 -17 25 -28 -4 -13
25 -32 123 -80 71 -35 210 -105 311 -156 196 -99 215 -106 366 -136 138 -28
277 -87 486 -205 41 -23 188 -100 325 -170 138 -71 316 -166 396 -211 232
-132 345 -174 463 -174 54 0 84 7 154 36 128 53 187 92 284 191 137 139 267
312 337 451 20 39 36 60 43 56 7 -4 8 -3 4 4 -4 6 2 31 12 54 10 24 25 58 32
75 7 18 16 30 21 27 5 -3 6 1 3 9 -3 8 2 32 11 53 74 173 123 348 131 470 4
63 2 75 -12 81 -24 9 -38 -15 -53 -91 -7 -37 -17 -68 -21 -71 -9 -6 -9 -4 21
115 32 131 48 297 49 505 0 266 -27 473 -89 674 -11 35 -17 69 -14 75 3 6 2 8
-2 3 -8 -6 -21 26 -69 168 -24 69 -112 324 -165 473 -27 78 -46 142 -43 142 4
0 2 4 -4 8 -18 13 -45 99 -46 149 -1 47 25 123 54 159 38 46 220 220 229 217
3 -1 12 7 20 19 33 48 185 190 247 231 37 25 105 70 152 101 47 31 105 71 130
91 64 49 128 68 238 70 51 1 96 6 100 10 12 12 183 -4 247 -23z m-261 -77 c25
-26 66 -119 71 -163 4 -41 3 -42 -24 -42 -16 0 -41 -7 -57 -14 -15 -8 -31 -13
-36 -10 -4 3 -8 0 -8 -5 0 -6 -5 -11 -11 -11 -6 0 -8 7 -5 16 3 8 2 13 -2 10
-5 -3 -29 37 -55 89 l-46 94 27 19 c15 11 34 22 42 25 30 11 89 7 104 -8z
m-5318 -346 c13 -15 15 -23 7 -26 -7 -3 -29 -16 -50 -30 -39 -27 -112 -70
-171 -100 -32 -17 -33 -17 -59 9 l-26 26 44 28 c40 25 215 112 230 113 3 1 14
-9 25 -20z m5390 -79 c-4 -39 72 -191 124 -245 95 -99 239 -395 209 -431 -18
-22 -26 -16 -33 25 -16 101 -116 290 -196 370 -108 108 -174 270 -122 300 9 6
18 11 19 11 2 0 1 -13 -1 -30z m-5676 -108 l22 -18 -56 -48 c-31 -26 -56 -44
-56 -40 0 4 -6 1 -12 -8 -20 -24 -177 -148 -188 -148 -17 0 -11 15 13 38 13
12 27 19 31 15 4 -5 6 -3 4 3 -2 6 22 36 52 66 30 30 76 77 101 106 25 29 50
52 56 52 6 0 21 -8 33 -18z m1329 -503 c40 -22 120 -59 177 -84 115 -49 224
-118 224 -141 0 -35 -52 -104 -79 -104 -9 0 -72 56 -141 125 -75 76 -155 145
-201 175 -41 26 -82 56 -89 66 -14 15 -13 16 10 9 14 -4 58 -25 99 -46z m-694
-128 c194 -31 387 -119 333 -152 -13 -8 -17 -6 -58 21 -51 33 -184 74 -315 95
-66 10 -160 14 -338 12 -159 -1 -247 2 -248 8 0 6 22 15 50 20 71 14 479 11
576 -4z m-865 -388 c95 -92 211 -196 259 -231 88 -65 111 -89 149 -155 l21
-37 -42 6 c-50 7 -134 45 -174 77 -15 13 -55 41 -88 63 -33 21 -116 93 -185
159 -69 66 -142 135 -163 153 -47 41 -50 80 -9 111 15 11 34 21 43 21 9 0 94
-75 189 -167z m1438 73 c132 -127 251 -348 286 -526 22 -119 -8 -139 -36 -24
-48 192 -147 374 -279 510 -40 42 -69 81 -69 93 0 31 26 17 98 -53z m5000 -73
c38 -106 74 -247 70 -277 -2 -11 -9 -21 -17 -21 -10 0 -25 40 -47 129 -19 71
-38 134 -42 140 -5 6 -15 28 -22 49 -9 30 -9 41 0 52 7 8 15 15 19 15 4 0 21
-39 39 -87z m-6702 -95 c31 -62 85 -155 120 -207 63 -91 78 -131 50 -131 -15
0 -76 71 -76 88 0 6 -3 12 -7 14 -14 6 -81 112 -101 158 -11 25 -28 65 -40 90
-28 62 -33 80 -26 91 13 21 27 3 80 -103z m6598 -130 c46 -188 59 -247 85
-378 25 -126 68 -265 86 -280 19 -16 19 -34 1 -49 -11 -9 -17 -8 -30 4 -22 23
-72 184 -91 300 -9 55 -32 159 -50 230 -68 274 -77 314 -71 324 20 31 34 1 70
-151z m-2638 -98 c-3 -47 -10 -145 -15 -218 -5 -74 -13 -138 -18 -143 -7 -7
-21 0 -43 19 -26 24 -31 35 -26 58 3 16 10 85 16 153 9 100 16 131 33 155 12
17 25 33 29 34 4 2 8 14 8 26 0 29 14 43 19 20 2 -10 0 -57 -3 -104z m-219
-120 c14 -14 29 -36 34 -49 20 -51 -39 -161 -87 -161 -36 0 -46 37 -38 146 7
99 9 105 39 122 17 9 21 8 24 -11 1 -12 14 -33 28 -47z m-3341 -202 c55 -57
124 -125 154 -152 136 -121 147 -136 109 -144 -13 -2 -150 106 -190 149 -8 8
-56 58 -106 111 -88 90 -115 138 -80 138 8 0 58 -46 113 -102z m159 -278 c4
-6 -3 -35 -14 -65 -30 -80 -48 -169 -56 -272 -9 -107 -1 -166 21 -161 12 2 15
28 18 133 3 102 9 147 28 210 30 99 39 117 56 106 11 -6 11 -17 2 -50 -16 -61
-50 -298 -50 -353 0 -47 12 -63 24 -33 3 8 10 55 16 103 17 145 32 232 41 238
5 3 9 -1 9 -9 0 -8 9 -26 20 -40 11 -14 17 -27 13 -30 -5 -2 -3 -2 4 -1 6 2
17 -4 23 -12 7 -7 30 -19 51 -26 44 -13 49 -23 18 -31 -19 -5 -21 -11 -15 -45
l6 -39 -49 -7 c-58 -8 -73 -23 -69 -68 3 -33 4 -33 63 -38 66 -6 119 -29 135
-60 13 -25 11 -25 -75 0 -90 26 -102 25 -109 -4 -6 -24 -7 -24 -49 -11 -23 7
-72 21 -109 31 -79 22 -77 19 -79 160 0 116 12 181 54 284 39 98 55 117 72 90z
m3497 -301 c29 -29 63 -58 76 -67 20 -13 21 -17 9 -29 -10 -11 -47 -15 -138
-16 -117 -2 -128 -4 -193 -35 -77 -36 -146 -52 -146 -33 0 7 21 21 46 32 25
11 48 27 51 35 7 19 67 44 104 44 18 0 32 7 39 20 6 11 17 20 25 20 8 0 23 8
33 18 17 17 17 20 4 29 -9 5 -12 15 -8 21 15 24 47 11 98 -39z m-2736 -79
c101 -49 186 -90 190 -90 4 0 52 -22 108 -50 97 -47 186 -113 172 -127 -3 -4
-52 16 -109 45 -56 28 -151 74 -212 101 -218 101 -384 186 -384 199 -2 28 60
7 235 -78z m5014 2 c0 -25 -43 -58 -131 -102 -55 -28 -107 -57 -115 -65 -9 -8
-20 -15 -25 -15 -5 0 -39 -30 -74 -66 l-65 -65 0 65 c0 36 -4 67 -9 70 -15 10
0 45 28 65 36 25 278 104 316 103 16 -1 37 3 45 8 18 12 30 13 30 2z m-2076
-110 c-4 -13 23 -32 133 -88 76 -39 137 -76 136 -83 -2 -6 2 -11 9 -11 6 0 9
-2 6 -5 -3 -3 -26 4 -52 16 -70 30 -78 18 -12 -19 31 -18 54 -37 51 -42 -3 -6
0 -10 7 -10 8 0 23 -7 34 -14 16 -13 10 -13 -45 0 -35 8 -69 13 -75 10 -6 -2
-2 -5 8 -5 11 -1 17 -4 13 -7 -5 -5 -33 2 -212 58 -94 29 -224 115 -203 133 2
2 39 21 83 43 88 45 126 53 119 24z m-3664 -122 c224 -55 344 -78 425 -82 79
-3 80 -3 80 21 0 20 -8 27 -42 39 -48 15 -54 27 -20 36 44 12 67 5 179 -48 62
-30 143 -68 181 -85 37 -17 67 -34 67 -39 0 -5 -7 -27 -16 -48 -13 -29 -17
-68 -16 -153 1 -63 -4 -123 -9 -134 -7 -11 -7 -17 -1 -13 10 6 22 -47 22 -97
0 -45 38 -144 82 -213 22 -36 38 -67 36 -69 -3 -3 -53 0 -113 6 -77 8 -120 8
-150 0 -43 -11 -105 -5 -105 9 0 15 -243 3 -310 -15 -78 -21 -159 -16 -216 13
-39 20 -85 62 -68 62 5 1 -18 14 -51 29 -78 37 -148 88 -139 103 4 7 3 8 -5 4
-13 -8 -64 42 -87 85 -8 16 -21 57 -29 92 -8 34 -21 76 -29 92 -12 26 -13 41
-1 115 8 47 18 94 24 105 5 11 12 32 15 47 5 24 27 50 124 154 18 19 30 18
172 -16z m3418 7 c-3 -26 37 -87 58 -87 8 0 31 -15 51 -33 80 -71 226 -144
266 -133 30 7 85 -13 92 -35 6 -16 9 -18 22 -8 11 10 16 10 22 0 4 -6 30 -14
57 -17 106 -10 321 -35 347 -40 61 -12 13 -14 -134 -5 -226 15 -518 82 -634
147 -83 46 -153 106 -177 151 -22 41 -22 42 -4 62 25 27 38 27 34 -2z m3524
-13 c92 -46 350 -284 380 -349 9 -20 8 -29 -7 -45 -23 -26 -29 -25 -42 3 -33
72 -260 267 -378 323 -38 19 -76 34 -83 34 -23 0 -9 43 18 57 28 14 45 11 112
-23z m-3886 -63 c71 -71 192 -147 334 -212 129 -59 162 -89 98 -89 -68 0 -341
152 -450 250 -53 47 -69 76 -51 93 12 13 20 7 69 -42z m-2114 -107 c-9 -51
-10 -124 -1 -118 5 3 7 10 4 15 -4 5 -2 9 4 9 5 0 15 16 21 36 7 19 14 33 17
30 3 -2 -1 -22 -8 -43 -16 -48 -17 -65 -3 -70 6 -2 23 20 37 49 14 29 26 45
26 35 1 -10 -6 -31 -14 -46 -12 -24 -12 -31 0 -47 13 -18 15 -16 36 31 25 57
27 60 35 53 3 -4 -2 -21 -12 -39 -38 -74 -35 -121 5 -85 26 24 32 1 14 -53
-17 -51 -12 -60 15 -31 27 30 46 17 39 -26 -4 -25 -2 -34 8 -34 7 0 15 5 17
12 2 6 9 8 16 4 8 -4 8 -14 2 -31 -11 -28 2 -41 20 -20 20 24 30 17 24 -15 -7
-31 11 -43 22 -15 10 25 26 17 22 -12 -4 -32 17 -42 32 -14 27 51 53 6 30 -53
-14 -39 7 -42 26 -4 34 68 60 75 43 12 -18 -63 -6 -73 25 -21 32 54 40 56 26
6 -6 -18 -10 -40 -10 -47 0 -24 24 -7 42 29 13 27 17 30 19 14 4 -50 7 -63 14
-74 4 -7 -2 -21 -14 -32 -12 -11 -21 -24 -21 -30 0 -6 -4 -7 -10 -4 -5 3 -10
1 -10 -5 0 -6 -8 -14 -17 -17 -10 -4 -28 -20 -42 -35 -13 -17 -30 -27 -38 -24
-8 3 -12 2 -9 -3 3 -5 -1 -14 -9 -21 -12 -10 -47 -11 -143 -7 -70 4 -128 7
-129 7 -1 0 -18 28 -37 63 -52 93 -98 216 -94 248 3 16 0 25 -5 22 -6 -4 -8 5
-5 20 3 15 2 24 -2 22 -12 -7 -49 227 -44 275 10 92 15 111 27 107 7 -2 11
-13 9 -23z m5548 -160 c177 -111 264 -176 475 -355 213 -182 227 -195 223
-222 -2 -16 -11 -23 -32 -25 -25 -3 -42 10 -130 101 -166 171 -305 286 -416
342 -18 10 -40 23 -47 30 -7 7 -50 34 -95 60 -46 27 -85 51 -88 55 -3 4 -29
19 -57 35 -74 40 -86 84 -21 79 22 -2 87 -36 188 -100z m-3104 -530 c104 -53
232 -111 284 -129 130 -44 390 -155 390 -166 0 -5 -3 -9 -8 -9 -11 0 -147 54
-226 89 -38 17 -103 43 -145 57 -88 30 -501 231 -501 245 0 5 4 9 9 9 5 0 93
-43 197 -96z m-1060 -89 c8 -12 11 -25 7 -29 -5 -4 -2 -6 5 -4 7 2 44 -28 82
-67 l70 -70 -47 -22 c-27 -12 -69 -27 -94 -34 -43 -11 -47 -11 -68 10 -24 24
-24 37 0 193 12 81 22 106 27 69 2 -14 10 -34 18 -46z m-1345 19 c4 -2 71 -7
149 -10 78 -4 185 -9 238 -13 l95 -6 18 -55 c10 -30 22 -56 28 -58 7 -2 9 -18
5 -42 -4 -25 -2 -40 6 -45 21 -13 40 24 42 79 1 42 2 45 5 14 2 -20 10 -42 18
-48 20 -17 28 20 20 100 -4 41 -3 70 3 74 6 3 11 -29 14 -82 5 -100 14 -125
35 -97 7 11 13 13 13 7 0 -7 9 -12 20 -12 15 0 20 7 21 28 l2 27 4 -27 c2 -16
11 -28 18 -28 8 0 16 -4 19 -8 3 -5 -5 -8 -17 -8 -13 1 -22 -5 -22 -14 0 -9 9
-15 23 -14 17 0 22 -5 22 -26 0 -26 -2 -27 -77 -34 -110 -9 -133 -8 -130 7 1
6 -7 12 -18 12 -11 0 -19 -6 -18 -12 4 -19 -20 -16 -137 17 -115 32 -453 101
-595 120 -49 7 -94 16 -98 20 -12 10 -10 91 2 124 l11 28 137 -7 c76 -4 140
-8 144 -11z m1729 -153 c154 -73 154 -79 4 -80 l-92 -1 -58 43 c-57 42 -194
183 -194 199 0 5 46 -16 103 -45 56 -29 163 -81 237 -116z m3544 -73 c65 -61
81 -70 71 -39 -7 22 13 40 25 21 5 -8 9 -7 13 5 4 9 3 14 -2 11 -4 -3 -13 6
-19 19 -13 28 -2 34 18 10 14 -17 35 -21 25 -5 -10 15 2 12 20 -6 24 -25 30
-9 8 23 -34 49 -39 60 -16 41 24 -22 31 -23 29 -2 -2 31 21 25 35 -8 7 -18 25
-54 41 -80 15 -27 24 -48 20 -48 -4 0 -2 -4 3 -8 20 -14 85 -134 79 -144 -4
-6 -2 -8 3 -5 6 4 18 -10 27 -33 9 -22 21 -40 26 -40 6 0 14 -8 17 -17 4 -10
22 -43 41 -73 29 -46 31 -52 11 -35 -13 11 -21 16 -17 11 4 -5 3 -17 -3 -27
-7 -14 -5 -26 8 -46 l17 -28 -28 25 c-29 25 -29 25 -23 2 l5 -22 -28 20 c-37
26 -45 25 -26 -2 27 -38 18 -41 -23 -9 -48 38 -56 39 -34 4 15 -26 14 -25 -22
7 -22 19 -43 40 -48 45 -5 6 -6 -1 -3 -15 5 -24 4 -24 -23 7 -32 37 -49 33
-24 -6 9 -14 -8 -2 -37 27 -29 28 -58 52 -63 52 -6 0 -32 18 -58 40 -56 47
-68 51 -44 13 16 -23 12 -22 -29 12 -26 21 -42 41 -37 45 15 9 -49 71 -151
148 -48 36 -86 67 -84 69 3 4 39 -21 189 -129 67 -48 85 -44 36 9 -37 41 -29
37 46 -22 28 -21 41 -29 31 -17 -11 12 -17 24 -14 27 3 3 11 -1 18 -10 13 -16
30 -20 30 -7 0 5 -10 19 -22 33 -64 72 -66 75 -25 45 72 -53 52 -15 -38 73
-50 49 -99 99 -110 112 -20 24 -20 24 10 -1 16 -14 71 -65 122 -115 99 -95
113 -106 113 -82 0 9 -46 64 -102 124 -102 108 -98 108 16 1z m538 -155 c94
-84 199 -197 194 -210 -3 -7 0 -12 6 -10 20 4 109 -125 159 -230 110 -230 155
-533 115 -773 -26 -155 -79 -260 -184 -368 -92 -94 -154 -118 -303 -115 -128
3 -233 23 -298 59 -98 52 -345 296 -415 407 -42 67 -97 243 -136 434 -37 181
-40 212 -40 354 0 136 3 165 26 243 23 82 60 156 83 171 6 3 24 -4 41 -16 l30
-23 -23 -25 c-13 -14 -30 -41 -37 -60 -18 -44 -19 -163 -3 -168 7 -3 34 16 61
41 27 25 55 46 62 46 7 0 21 6 29 14 34 30 58 23 121 -38 175 -167 366 -238
483 -179 16 8 35 12 43 9 7 -3 16 0 20 6 4 7 3 8 -4 4 -26 -16 -10 8 29 43 34
30 41 43 41 74 0 43 11 40 68 -17 38 -39 55 -44 64 -21 13 35 -66 137 -194
251 -25 22 -52 51 -60 64 -20 31 -41 80 -35 80 2 0 28 -21 57 -47z m-6722
-273 c47 -12 191 -56 320 -100 353 -118 438 -131 593 -84 13 4 17 -1 17 -23 0
-37 16 -53 54 -53 19 0 26 -4 21 -9 -18 -18 -236 -44 -315 -38 -102 8 -248 48
-361 98 -171 76 -368 149 -402 149 -7 0 -30 -9 -52 -20 -47 -24 -68 -25 -89
-4 -22 21 -20 46 5 78 17 22 28 26 72 26 29 0 90 -9 137 -20z"/>
<path d="M3240 6785 c0 -9 48 -24 113 -35 34 -6 172 -15 307 -19 135 -5 267
-15 293 -21 35 -9 51 -10 59 -2 28 28 -118 51 -327 52 -82 0 -204 7 -270 15
-128 16 -175 18 -175 10z"/>
<path d="M4336 6601 c5 -5 54 -42 110 -84 107 -80 158 -135 218 -234 35 -59
56 -78 56 -52 0 6 -17 41 -37 77 -46 84 -175 213 -263 265 -59 34 -108 50 -84
28z"/>
<path d="M7415 2281 c-10 -17 -11 -286 -2 -354 8 -57 9 -58 39 -55 27 3 36 12
66 66 l35 64 -46 91 c-25 51 -51 112 -58 137 -14 52 -24 66 -34 51z"/>
<path d="M8474 2225 c-5 -12 25 -190 42 -248 5 -14 14 -17 42 -15 34 3 37 5
34 33 -1 17 -7 39 -12 50 -64 142 -90 195 -95 195 -3 0 -8 -7 -11 -15z"/>
<path d="M7437 1793 c-7 -11 2 -53 12 -53 3 0 12 -13 19 -29 7 -17 45 -62 84
-101 54 -54 77 -70 92 -67 12 3 68 24 126 48 142 59 148 69 60 102 -30 11 -68
30 -85 42 -51 39 -292 84 -308 58z"/>
<path d="M8513 1783 c-7 -3 -13 -17 -13 -32 0 -78 -58 -222 -112 -278 -25 -26
-29 -35 -19 -47 8 -10 11 -48 9 -124 -3 -94 -1 -109 12 -104 24 8 50 33 90 87
49 66 61 92 100 204 36 107 36 141 -4 219 -32 61 -48 81 -63 75z"/>
<path d="M7673 1519 c-12 -12 29 -73 99 -150 86 -94 322 -234 357 -212 25 16
19 35 -14 46 -16 6 -52 22 -80 36 -44 23 -50 30 -53 62 l-3 35 59 -10 c65 -10
92 -5 92 19 0 11 -12 15 -52 15 -80 0 -202 47 -297 114 -86 60 -91 62 -108 45z"/>
</g>
</svg>
